<mxfile host="65bd71144e">
    <diagram id="hdWrp7cVL7U36qga1n5I" name="Page-1">
        <mxGraphModel dx="1906" dy="1041" grid="1" gridSize="10" guides="1" tooltips="1" connect="1" arrows="1" fold="1" page="1" pageScale="1" pageWidth="850" pageHeight="1100" math="0" shadow="0">
            <root>
                <mxCell id="0"/>
                <mxCell id="1" parent="0"/>
                <mxCell id="23" value="" style="rounded=1;whiteSpace=wrap;html=1;fontSize=30;arcSize=8;fillColor=#0050ef;fontColor=#FFFFFF;strokeColor=#000000;" vertex="1" parent="1">
                    <mxGeometry x="600" y="110" width="320" height="260" as="geometry"/>
                </mxCell>
                <mxCell id="22" value="" style="rounded=1;whiteSpace=wrap;html=1;fontSize=30;arcSize=8;fillColor=#a20025;fontColor=#ffffff;strokeColor=#000000;" vertex="1" parent="1">
                    <mxGeometry x="30" y="170" width="340" height="130" as="geometry"/>
                </mxCell>
                <mxCell id="2" value="X ~ Distribution(a, b, ...)" style="text;html=1;strokeColor=none;fillColor=none;align=center;verticalAlign=middle;whiteSpace=wrap;rounded=0;fontSize=30;" vertex="1" parent="1">
                    <mxGeometry x="30" y="250" width="340" height="30" as="geometry"/>
                </mxCell>
                <mxCell id="4" value="Observations" style="text;html=1;strokeColor=none;fillColor=none;align=center;verticalAlign=middle;whiteSpace=wrap;rounded=0;fontSize=40;fontColor=#FFFFFF;" vertex="1" parent="1">
                    <mxGeometry x="640" y="120" width="240" height="30" as="geometry"/>
                </mxCell>
                <mxCell id="5" value="" style="endArrow=none;html=1;fontSize=40;fontColor=#FFFFFF;" edge="1" parent="1">
                    <mxGeometry width="50" height="50" relative="1" as="geometry">
                        <mxPoint x="720" y="360" as="sourcePoint"/>
                        <mxPoint x="720" y="170" as="targetPoint"/>
                    </mxGeometry>
                </mxCell>
                <mxCell id="6" value="12" style="text;html=1;strokeColor=none;fillColor=none;align=left;verticalAlign=middle;whiteSpace=wrap;rounded=0;fontSize=30;fontColor=#FFFFFF;" vertex="1" parent="1">
                    <mxGeometry x="730" y="210" width="180" height="30" as="geometry"/>
                </mxCell>
                <mxCell id="7" value="17" style="text;html=1;strokeColor=none;fillColor=none;align=left;verticalAlign=middle;whiteSpace=wrap;rounded=0;fontSize=30;fontColor=#FFFFFF;" vertex="1" parent="1">
                    <mxGeometry x="730" y="250" width="180" height="30" as="geometry"/>
                </mxCell>
                <mxCell id="8" value="34" style="text;html=1;strokeColor=none;fillColor=none;align=left;verticalAlign=middle;whiteSpace=wrap;rounded=0;fontSize=30;fontColor=#FFFFFF;" vertex="1" parent="1">
                    <mxGeometry x="730" y="290" width="180" height="30" as="geometry"/>
                </mxCell>
                <mxCell id="9" value="2" style="text;html=1;strokeColor=none;fillColor=none;align=left;verticalAlign=middle;whiteSpace=wrap;rounded=0;fontSize=30;fontColor=#FFFFFF;" vertex="1" parent="1">
                    <mxGeometry x="730" y="330" width="180" height="30" as="geometry"/>
                </mxCell>
                <mxCell id="11" value="X = a" style="text;html=1;strokeColor=none;fillColor=none;align=right;verticalAlign=middle;whiteSpace=wrap;rounded=0;fontSize=30;fontColor=#FFFFFF;" vertex="1" parent="1">
                    <mxGeometry x="610" y="210" width="100" height="30" as="geometry"/>
                </mxCell>
                <mxCell id="12" value="X = b" style="text;html=1;strokeColor=none;fillColor=none;align=right;verticalAlign=middle;whiteSpace=wrap;rounded=0;fontSize=30;fontColor=#FFFFFF;" vertex="1" parent="1">
                    <mxGeometry x="630" y="250" width="80" height="30" as="geometry"/>
                </mxCell>
                <mxCell id="13" value="X = c" style="text;html=1;strokeColor=none;fillColor=none;align=right;verticalAlign=middle;whiteSpace=wrap;rounded=0;fontSize=30;fontColor=#FFFFFF;" vertex="1" parent="1">
                    <mxGeometry x="630" y="290" width="80" height="30" as="geometry"/>
                </mxCell>
                <mxCell id="14" value="X = d" style="text;html=1;strokeColor=none;fillColor=none;align=right;verticalAlign=middle;whiteSpace=wrap;rounded=0;fontSize=30;fontColor=#FFFFFF;" vertex="1" parent="1">
                    <mxGeometry x="600" y="330" width="110" height="30" as="geometry"/>
                </mxCell>
                <mxCell id="17" value="Result" style="text;html=1;strokeColor=none;fillColor=none;align=right;verticalAlign=middle;whiteSpace=wrap;rounded=0;fontSize=30;fontColor=#FFFFFF;" vertex="1" parent="1">
                    <mxGeometry x="650" y="170" width="60" height="30" as="geometry"/>
                </mxCell>
                <mxCell id="18" value="Occurrences" style="text;html=1;strokeColor=none;fillColor=none;align=left;verticalAlign=middle;whiteSpace=wrap;rounded=0;fontSize=30;fontColor=#FFFFFF;" vertex="1" parent="1">
                    <mxGeometry x="730" y="170" width="130" height="30" as="geometry"/>
                </mxCell>
                <mxCell id="19" value="" style="endArrow=none;html=1;fontSize=40;fontColor=#FFFFFF;" edge="1" parent="1">
                    <mxGeometry width="50" height="50" relative="1" as="geometry">
                        <mxPoint x="910" y="209.43" as="sourcePoint"/>
                        <mxPoint x="610" y="209" as="targetPoint"/>
                    </mxGeometry>
                </mxCell>
                <mxCell id="20" value="Distribution" style="text;html=1;strokeColor=none;fillColor=none;align=center;verticalAlign=middle;whiteSpace=wrap;rounded=0;fontSize=40;" vertex="1" parent="1">
                    <mxGeometry x="90" y="190" width="240" height="30" as="geometry"/>
                </mxCell>
                <mxCell id="21" value="Probability" style="endArrow=open;html=1;fontSize=30;endFill=0;endSize=30;labelBackgroundColor=none;" edge="1" parent="1">
                    <mxGeometry x="-0.1111" y="30" width="50" height="50" relative="1" as="geometry">
                        <mxPoint x="390" y="240" as="sourcePoint"/>
                        <mxPoint x="570" y="240" as="targetPoint"/>
                        <mxPoint as="offset"/>
                    </mxGeometry>
                </mxCell>
            </root>
        </mxGraphModel>
    </diagram>
</mxfile>